<svg width="109" height="109" viewBox="0 0 109 109" fill="none" xmlns="http://www.w3.org/2000/svg">
<rect x="9.32397" width="100" height="100" rx="20" transform="rotate(5.35 9.32397 0)" fill="#24A79C"/>
<path d="M45.6407 35.9503C43.5104 35.689 41.478 37.0046 40.8144 39.0962C38.7273 45.6744 37.6892 50.5683 36.9277 57.4021C36.6877 59.5558 37.9754 61.5646 39.9936 62.2123C41.8446 62.8063 43.5788 63.3323 45.2491 63.8014C46.9484 64.2787 48.3459 65.5183 48.9912 67.191L49.91 69.5726C50.1492 70.1926 50.9314 70.3589 51.4021 69.8898L53.2036 68.0943C54.4749 66.8273 56.2581 66.2638 58.0065 66.5197C59.7285 66.7718 61.5272 66.9958 63.4577 67.2033C65.5556 67.4288 67.5399 66.1265 68.1989 64.0725C70.3073 57.502 71.3354 52.6004 72.0948 45.7386C72.3359 43.5602 71.016 41.5348 68.9663 40.907C60.4895 38.3108 54.4474 37.0302 45.6407 35.9503Z" stroke="white" stroke-width="3"/>
<path d="M47.9702 47.0957L62.3164 50.1451" stroke="white" stroke-width="3" stroke-linecap="round"/>
<path d="M46.6361 53.3721L57.3957 55.6591" stroke="white" stroke-width="3" stroke-linecap="round"/>
</svg>
