<svg width="120" height="120" viewBox="0 0 120 120" fill="none" xmlns="http://www.w3.org/2000/svg">
<rect y="22.1167" width="100" height="100" rx="20" transform="rotate(-12.7775 0 22.1167)" fill="#24A79C"/>
<path d="M60.2647 43.1155C55.699 43.8945 51.584 44.9394 46.4502 46.5618C44.618 47.1408 43.4765 49.1163 43.7508 51.2575C44.8746 60.0316 46.2969 66.0464 48.7269 74.4381C49.3384 76.5497 51.2084 77.9424 53.1521 77.7203C60.8594 76.8395 66.1928 75.7076 73.6885 73.3515C75.5502 72.7663 76.694 70.7424 76.3967 68.5698C75.5088 62.0835 74.6086 57.084 73.1882 51.5081M60.2647 43.1155L73.1882 51.5081M60.2647 43.1155L62.0104 51.3282C62.2974 52.6787 63.625 53.5408 64.9755 53.2538L73.1882 51.5081" stroke="white" stroke-width="3"/>
<path d="M53.1108 62.3662L67.4569 59.3168" stroke="white" stroke-width="3" stroke-linecap="round"/>
<path d="M54.4449 68.6426L63.4112 66.7367" stroke="white" stroke-width="3" stroke-linecap="round"/>
</svg>
