<svg width="124" height="124" viewBox="0 0 124 124" fill="none" xmlns="http://www.w3.org/2000/svg">
<rect x="27.7535" width="100" height="100" rx="20" transform="rotate(16.1132 27.7535 0)" fill="#24A79C"/>
<path d="M54.5159 70.0398L55.1477 68.6793V68.6793L54.5159 70.0398ZM58.1015 75.4884L59.3407 74.6431L59.3407 74.6431L58.1015 75.4884ZM56.4243 68.4742L54.9392 68.2633L54.9338 68.3017L54.9303 68.3403L56.4243 68.4742ZM56.855 66.641L55.4089 66.2424L56.855 66.641ZM63.1308 79.4836L62.5781 80.8781L63.1308 79.4836ZM65.7666 78.0692L65.5672 79.5559L65.7666 78.0692ZM64.046 64.8404C63.2496 64.612 62.419 65.0725 62.1906 65.8688C61.9623 66.6652 62.4227 67.4958 63.219 67.7242L63.6325 66.2823L64.046 64.8404ZM70.2683 69.7455C71.0646 69.9739 71.8953 69.5134 72.1236 68.7171C72.352 67.9207 71.8915 67.0901 71.0952 66.8617L70.6818 68.3036L70.2683 69.7455ZM62.7826 69.2462C61.9863 69.0178 61.1556 69.4783 60.9273 70.2746C60.6989 71.0709 61.1594 71.9016 61.9557 72.13L62.3692 70.6881L62.7826 69.2462ZM69.005 74.1513C69.8013 74.3796 70.632 73.9192 70.8603 73.1229C71.0887 72.3265 70.6282 71.4959 69.8319 71.2675L69.4184 72.7094L69.005 74.1513ZM47.0396 54.3103L48.4815 54.7238C50.2527 48.547 56.9346 44.9428 63.4904 46.8226L63.9039 45.3807L64.3173 43.9388C56.2741 41.6325 47.8552 46.0241 45.5977 53.8969L47.0396 54.3103ZM54.5159 70.0398L55.1477 68.6793C49.7691 66.1816 46.8867 60.2856 48.4815 54.7238L47.0396 54.3103L45.5977 53.8969C43.5662 60.9816 47.2647 68.3263 53.8841 71.4002L54.5159 70.0398ZM63.9039 45.3807L63.4904 46.8226C70.5334 48.8422 73.8854 55.2608 71.8556 62.091L73.2935 62.5183L74.7313 62.9456C77.2262 54.5504 72.9977 46.4279 64.3173 43.9388L63.9039 45.3807ZM55.441 71.9599L53.9991 71.5465C53.5564 73.0904 54.4135 74.9192 56.229 75.2397L56.4897 73.7625L56.7504 72.2853C56.773 72.2893 56.8026 72.3007 56.8296 72.3204C56.8548 72.3387 56.8684 72.3572 56.8747 72.3682C56.8857 72.3875 56.8783 72.3895 56.8829 72.3734L55.441 71.9599ZM54.5159 70.0398L53.8841 71.4002C53.9352 71.4239 53.9716 71.4632 53.9894 71.4994C54.0048 71.5305 54.0002 71.5428 53.9991 71.5465L55.441 71.9599L56.8829 72.3734C57.331 70.8107 56.4696 69.2932 55.1477 68.6793L54.5159 70.0398ZM76.3637 71.7677L77.8056 72.1812C79.4578 66.4193 75.5983 60.5241 69.5922 58.8019L69.1787 60.2438L68.7653 61.6857C73.4651 63.0333 76.0393 67.457 74.9218 71.3543L76.3637 71.7677ZM65.7666 78.0692L65.5672 79.5559C70.9763 80.2814 76.32 77.362 77.8056 72.1812L76.3637 71.7677L74.9218 71.3543C73.9143 74.8679 70.1578 77.1447 65.966 76.5825L65.7666 78.0692ZM63.1308 79.4836L63.6834 78.0891C61.9081 77.3856 60.3895 76.1809 59.3407 74.6431L58.1015 75.4884L56.8623 76.3336C58.2583 78.3803 60.2615 79.96 62.5781 80.8781L63.1308 79.4836ZM58.1015 75.4884L59.3407 74.6431C58.1397 72.8824 57.7069 70.9667 57.9183 68.6082L56.4243 68.4742L54.9303 68.3403C54.6668 71.279 55.2108 73.9123 56.8623 76.3336L58.1015 75.4884ZM56.855 66.641L55.4089 66.2424C55.2873 66.6836 55.0233 67.6715 54.9392 68.2633L56.4243 68.4742L57.9094 68.6851C57.9613 68.3202 58.1667 67.527 58.301 67.0397L56.855 66.641ZM69.1787 60.2438L69.5922 58.8019C63.0978 56.9397 57.1014 60.103 55.4089 66.2424L56.855 66.641L58.301 67.0397C59.5107 62.6518 63.7292 60.2416 68.7653 61.6857L69.1787 60.2438ZM64.4652 78.8337L63.0233 78.4203C63.1037 78.14 63.411 77.9812 63.6834 78.0891L63.1308 79.4836L62.5781 80.8781C63.9851 81.4357 65.508 80.6388 65.9071 79.2472L64.4652 78.8337ZM65.7666 78.0692L65.966 76.5825C64.8042 76.4267 63.4223 77.0287 63.0233 78.4203L64.4652 78.8337L65.9071 79.2472C65.8648 79.3946 65.7696 79.4842 65.7023 79.5228C65.6411 79.5579 65.5942 79.5595 65.5672 79.5559L65.7666 78.0692ZM63.6325 66.2823L63.219 67.7242L70.2683 69.7455L70.6818 68.3036L71.0952 66.8617L64.046 64.8404L63.6325 66.2823ZM62.3692 70.6881L61.9557 72.13L69.005 74.1513L69.4184 72.7094L69.8319 71.2675L62.7826 69.2462L62.3692 70.6881Z" fill="white"/>
</svg>
