<svg width="121" height="121" viewBox="0 0 121 121" fill="none" xmlns="http://www.w3.org/2000/svg">
<rect y="23.7935" width="100" height="100" rx="20" transform="rotate(-13.7647 0 23.7935)" fill="#24A79C"/>
<path d="M52.0755 75.2972L56.1332 74.4347C56.6087 74.3336 57.0986 74.3159 57.5838 74.3823L64.0993 75.2732C64.5845 75.3395 65.0744 75.3218 65.5499 75.2207L72.0902 73.8306C73.7079 73.4867 75.0076 72.2196 75.3885 70.512C76.5839 65.1531 76.7415 61.2779 76.1279 56.5878C75.7797 53.9263 73.3062 52.2001 70.8543 52.7213L64.6044 54.0498M64.6044 54.0498L62.1331 54.5751M64.6044 54.0498C65.3341 50.853 65.7197 51.4631 65.4587 47.7963C65.3253 45.9222 63.9953 44.363 62.2631 43.9688L60.593 43.5886C59.7408 43.3947 58.9654 44.1502 58.9776 45.0732C59.0029 46.9836 58.7348 49.824 57.0694 51.0053C53.3285 53.6589 52.4184 56.3259 49.8792 60.5825M44.3213 59.9981L48.7488 58.1982C48.9388 58.1209 49.1561 58.2318 49.2242 58.4401C51.4132 65.1334 51.606 69.6365 52.1874 76.6732C52.2053 76.8894 52.0525 77.0756 51.8495 77.0823L47.1023 77.2378C46.9059 77.2442 46.7363 77.0794 46.7213 76.87C46.2562 70.4081 45.7047 66.6835 44.1108 60.4513C44.0626 60.2625 44.1525 60.0668 44.3213 59.9981Z" stroke="white" stroke-width="3" stroke-linecap="round"/>
</svg>
