<svg width="30" height="30" viewBox="0 0 30 30" fill="none" xmlns="http://www.w3.org/2000/svg">
<path fill-rule="evenodd" clip-rule="evenodd" d="M7.69954 0.00947172C12.3719 -0.00941425 17.0475 0.00632406 21.723 0.0031764C23.3771 0.0283577 25.1289 0.0692773 26.6097 0.906555C28.2606 1.7879 29.4484 3.45931 29.7761 5.29754C29.9777 6.39293 30.0029 7.51664 29.9998 8.62777C29.9935 13.2076 30.0092 17.7875 29.9903 22.3705C29.9746 24.1741 29.6847 26.091 28.4875 27.5169C27.1988 29.1914 25.0501 29.9406 22.9896 29.9563C19.0891 30.0413 15.1855 29.9721 11.2818 29.9941C9.38513 29.9658 7.47899 30.0885 5.59491 29.8178C3.60371 29.544 1.73853 28.2975 0.846895 26.4813C-0.0100785 24.8917 0.0119783 23.0283 0.00252634 21.2751C0.0151289 16.6386 -0.0195296 12.0021 0.0182781 7.3687C0.0182781 5.35735 0.56649 3.21379 2.11345 1.82882C3.5785 0.380896 5.71463 0.00632406 7.69954 0.00947172Z" fill="url(#paint0_linear_1_16500)"/>
<g filter="url(#filter0_f_1_16500)">
<path d="M20.9326 1.89844V1.89941C22.3988 1.92173 23.9092 1.95991 25.1807 2.67871L25.1836 2.68066C26.6025 3.43814 27.6262 4.87695 27.9082 6.45898V6.45996C28.0837 7.41338 28.1063 8.39439 28.1035 9.37402C28.1007 11.3961 28.1028 13.4178 28.1035 15.4395L28.0947 21.5059C28.0809 23.0894 27.8256 24.7404 26.8008 25.9609L26.7969 25.9658C25.6932 27.3999 23.8433 28.0507 22.0527 28.0645H22.0498C18.6077 28.1394 15.1685 28.0772 11.7178 28.0967C10.0292 28.0716 8.36783 28.1815 6.7168 27.9443L6.71582 27.9434C4.99967 27.7073 3.39486 26.6324 2.62988 25.0742L2.49805 24.8105C2.05424 23.8511 1.94374 22.787 1.91309 21.7119L1.89941 20.5391C1.91054 16.4439 1.87971 12.3537 1.91309 8.26367V8.2627C1.91314 6.50688 2.39183 4.66102 3.71582 3.47559H3.7168L3.72168 3.4707C4.97518 2.2322 6.81379 1.90253 8.55469 1.90527H8.55566C12.6794 1.88861 16.8051 1.90121 20.9326 1.89844Z" stroke="#EEFFFE" stroke-opacity="0.8" stroke-width="0.277778"/>
</g>
<g filter="url(#filter1_f_1_16500)">
<path d="M16.1709 1.75781V2.40234H18.3975V1.75879C18.417 1.7588 18.4365 1.75878 18.4561 1.75879V2.40234H20.6826V1.75977C20.7021 1.75976 20.7217 1.75978 20.7412 1.75977V2.40234H22.9678V1.86914C22.9873 1.87153 23.0069 1.87347 23.0264 1.87598V2.40234H24.9453C24.9852 2.42127 25.0249 2.44084 25.0645 2.46094H23.0264V4.6875H25.2529V2.55957C25.2727 2.57016 25.2919 2.58193 25.3115 2.59277V4.6875H27.4092C27.4202 4.70689 27.4306 4.72658 27.4414 4.74609H25.3115V6.97266H27.5381V4.92969C27.5583 4.96973 27.5774 5.01027 27.5967 5.05078V6.97266H28.126C28.1285 6.9922 28.1314 7.01169 28.1338 7.03125H27.5967V9.25781H28.2402C28.2402 9.27735 28.2412 9.29688 28.2412 9.31641H27.5967V11.543H28.2412C28.2412 11.5625 28.2412 11.582 28.2412 11.6016H27.5967V13.8281H28.2412C28.2412 13.8477 28.2412 13.8672 28.2412 13.8867H27.5967V16.1133H28.2402C28.2402 16.1328 28.2402 16.1523 28.2402 16.1719H27.5967V18.3984H28.2373C28.2373 18.418 28.2373 18.4375 28.2373 18.457H27.5967V20.6836H28.2344C28.2343 20.7031 28.2344 20.7227 28.2344 20.7422H27.5967V22.9688H28.1377C28.1351 22.9883 28.1326 23.0078 28.1299 23.0273H27.5967V24.9453C27.5775 24.9872 27.5583 25.029 27.5381 25.0703V23.0273H25.3115V25.2539H27.4434C27.4328 25.2734 27.4229 25.2932 27.4121 25.3125H25.3115V27.3965C25.2921 27.4072 25.2725 27.4173 25.2529 27.4277V25.3125H23.0264V27.5391H25.0391C24.9963 27.5597 24.9525 27.578 24.9092 27.5977H23.0264V28.1318C23.0068 28.1345 22.9873 28.1371 22.9678 28.1396V27.5977H20.7412V28.2256C20.7217 28.2258 20.7021 28.2253 20.6826 28.2256V27.5977H18.4561V28.2383C18.4365 28.2383 18.417 28.2382 18.3975 28.2383V27.5977H16.1709V28.2393C16.1514 28.2392 16.1318 28.2383 16.1123 28.2383V27.5977H13.8857V28.2344C13.8662 28.2343 13.8467 28.2344 13.8271 28.2344V27.5977H11.6006V28.2363C11.5811 28.2361 11.5615 28.2365 11.542 28.2363V27.5977H9.31543V28.2383C9.2959 28.2382 9.27637 28.2384 9.25684 28.2383V27.5977H7.03027V28.1201C7.01074 28.1178 6.99121 28.1157 6.97168 28.1133V27.5977H5.07031C5.03049 27.579 4.99153 27.5586 4.95215 27.5391H6.97168V25.3125H4.74512V27.4307C4.72542 27.4199 4.70609 27.4085 4.68652 27.3975V25.3125H2.59863C2.58814 25.2932 2.5786 25.2734 2.56836 25.2539H4.68652V23.0273H2.45996V25.0459C2.43999 25.0069 2.4202 24.968 2.40137 24.9287V23.0273H1.87012C1.86756 23.0078 1.86474 22.9883 1.8623 22.9688H2.40137V20.7422H1.76172C1.76163 20.7226 1.76181 20.7031 1.76172 20.6836H2.40137V18.457H1.75879C1.75879 18.4375 1.75879 18.418 1.75879 18.3984H2.40137V16.1719H1.75879C1.75876 16.1523 1.75881 16.1328 1.75879 16.1133H2.40137V13.8867H1.75781C1.7578 13.8672 1.75783 13.8477 1.75781 13.8281H2.40137V11.6016H1.75879C1.75882 11.582 1.75876 11.5625 1.75879 11.543H2.40137V9.31641H1.76855C1.76867 9.29688 1.76844 9.27734 1.76855 9.25781H2.40137V7.03125H1.85645C1.8591 7.01177 1.86049 6.99212 1.86328 6.97266H2.40137V5.07129C2.42071 5.02853 2.43961 4.98561 2.45996 4.94336V6.97266H4.68652V4.74609H2.56055C2.57086 4.72668 2.58028 4.70679 2.59082 4.6875H4.68652V2.58496C4.70581 2.5744 4.72571 2.565 4.74512 2.55469V4.6875H6.97168V2.46094H4.93164C4.97336 2.44082 5.01539 2.42142 5.05762 2.40234H6.97168V1.86914C6.99119 1.86638 7.01075 1.86397 7.03027 1.86133V2.40234H9.25684V1.76465C9.27637 1.76459 9.2959 1.76471 9.31543 1.76465V2.40234H11.542V1.76172C11.5615 1.7617 11.5811 1.76174 11.6006 1.76172V2.40234H13.8271V1.75879C13.8467 1.75879 13.8662 1.75878 13.8857 1.75879V2.40234H16.1123V1.75781C16.1318 1.75783 16.1514 1.7578 16.1709 1.75781ZM7.03027 27.5391H9.25684V25.3125H7.03027V27.5391ZM9.31543 27.5391H11.542V25.3125H9.31543V27.5391ZM11.6006 27.5391H13.8271V25.3125H11.6006V27.5391ZM13.8857 27.5391H16.1123V25.3125H13.8857V27.5391ZM16.1709 27.5391H18.3975V25.3125H16.1709V27.5391ZM18.4561 27.5391H20.6826V25.3125H18.4561V27.5391ZM20.7412 27.5391H22.9678V25.3125H20.7412V27.5391ZM4.74512 25.2539H6.97168V23.0273H4.74512V25.2539ZM7.03027 25.2539H9.25684V23.0273H7.03027V25.2539ZM9.31543 25.2539H11.542V23.0273H9.31543V25.2539ZM11.6006 25.2539H13.8271V23.0273H11.6006V25.2539ZM13.8857 25.2539H16.1123V23.0273H13.8857V25.2539ZM16.1709 25.2539H18.3975V23.0273H16.1709V25.2539ZM18.4561 25.2539H20.6826V23.0273H18.4561V25.2539ZM20.7412 25.2539H22.9678V23.0273H20.7412V25.2539ZM23.0264 25.2539H25.2529V23.0273H23.0264V25.2539ZM2.45996 22.9688H4.68652V20.7422H2.45996V22.9688ZM4.74512 22.9688H6.97168V20.7422H4.74512V22.9688ZM7.03027 22.9688H9.25684V20.7422H7.03027V22.9688ZM9.31543 22.9688H11.542V20.7422H9.31543V22.9688ZM11.6006 22.9688H13.8271V20.7422H11.6006V22.9688ZM13.8857 22.9688H16.1123V20.7422H13.8857V22.9688ZM16.1709 22.9688H18.3975V20.7422H16.1709V22.9688ZM18.4561 22.9688H20.6826V20.7422H18.4561V22.9688ZM20.7412 22.9688H22.9678V20.7422H20.7412V22.9688ZM23.0264 22.9688H25.2529V20.7422H23.0264V22.9688ZM25.3115 22.9688H27.5381V20.7422H25.3115V22.9688ZM2.45996 20.6836H4.68652V18.457H2.45996V20.6836ZM4.74512 20.6836H6.97168V18.457H4.74512V20.6836ZM7.03027 20.6836H9.25684V18.457H7.03027V20.6836ZM9.31543 20.6836H11.542V18.457H9.31543V20.6836ZM11.6006 20.6836H13.8271V18.457H11.6006V20.6836ZM13.8857 20.6836H16.1123V18.457H13.8857V20.6836ZM16.1709 20.6836H18.3975V18.457H16.1709V20.6836ZM18.4561 20.6836H20.6826V18.457H18.4561V20.6836ZM20.7412 20.6836H22.9678V18.457H20.7412V20.6836ZM23.0264 20.6836H25.2529V18.457H23.0264V20.6836ZM25.3115 20.6836H27.5381V18.457H25.3115V20.6836ZM2.45996 18.3984H4.68652V16.1719H2.45996V18.3984ZM4.74512 18.3984H6.97168V16.1719H4.74512V18.3984ZM7.03027 18.3984H9.25684V16.1719H7.03027V18.3984ZM9.31543 18.3984H11.542V16.1719H9.31543V18.3984ZM11.6006 18.3984H13.8271V16.1719H11.6006V18.3984ZM13.8857 18.3984H16.1123V16.1719H13.8857V18.3984ZM16.1709 18.3984H18.3975V16.1719H16.1709V18.3984ZM18.4561 18.3984H20.6826V16.1719H18.4561V18.3984ZM20.7412 18.3984H22.9678V16.1719H20.7412V18.3984ZM23.0264 18.3984H25.2529V16.1719H23.0264V18.3984ZM25.3115 18.3984H27.5381V16.1719H25.3115V18.3984ZM2.45996 16.1133H4.68652V13.8867H2.45996V16.1133ZM4.74512 16.1133H6.97168V13.8867H4.74512V16.1133ZM7.03027 16.1133H9.25684V13.8867H7.03027V16.1133ZM9.31543 16.1133H11.542V13.8867H9.31543V16.1133ZM11.6006 16.1133H13.8271V13.8867H11.6006V16.1133ZM13.8857 16.1133H16.1123V13.8867H13.8857V16.1133ZM16.1709 16.1133H18.3975V13.8867H16.1709V16.1133ZM18.4561 16.1133H20.6826V13.8867H18.4561V16.1133ZM20.7412 16.1133H22.9678V13.8867H20.7412V16.1133ZM23.0264 16.1133H25.2529V13.8867H23.0264V16.1133ZM25.3115 16.1133H27.5381V13.8867H25.3115V16.1133ZM2.45996 13.8281H4.68652V11.6016H2.45996V13.8281ZM4.74512 13.8281H6.97168V11.6016H4.74512V13.8281ZM7.03027 13.8281H9.25684V11.6016H7.03027V13.8281ZM9.31543 13.8281H11.542V11.6016H9.31543V13.8281ZM11.6006 13.8281H13.8271V11.6016H11.6006V13.8281ZM13.8857 13.8281H16.1123V11.6016H13.8857V13.8281ZM16.1709 13.8281H18.3975V11.6016H16.1709V13.8281ZM18.4561 13.8281H20.6826V11.6016H18.4561V13.8281ZM20.7412 13.8281H22.9678V11.6016H20.7412V13.8281ZM23.0264 13.8281H25.2529V11.6016H23.0264V13.8281ZM25.3115 13.8281H27.5381V11.6016H25.3115V13.8281ZM2.45996 11.543H4.68652V9.31641H2.45996V11.543ZM4.74512 11.543H6.97168V9.31641H4.74512V11.543ZM7.03027 11.543H9.25684V9.31641H7.03027V11.543ZM9.31543 11.543H11.542V9.31641H9.31543V11.543ZM11.6006 11.543H13.8271V9.31641H11.6006V11.543ZM13.8857 11.543H16.1123V9.31641H13.8857V11.543ZM16.1709 11.543H18.3975V9.31641H16.1709V11.543ZM18.4561 11.543H20.6826V9.31641H18.4561V11.543ZM20.7412 11.543H22.9678V9.31641H20.7412V11.543ZM23.0264 11.543H25.2529V9.31641H23.0264V11.543ZM25.3115 11.543H27.5381V9.31641H25.3115V11.543ZM2.45996 9.25781H4.68652V7.03125H2.45996V9.25781ZM4.74512 9.25781H6.97168V7.03125H4.74512V9.25781ZM7.03027 9.25781H9.25684V7.03125H7.03027V9.25781ZM9.31543 9.25781H11.542V7.03125H9.31543V9.25781ZM11.6006 9.25781H13.8271V7.03125H11.6006V9.25781ZM13.8857 9.25781H16.1123V7.03125H13.8857V9.25781ZM16.1709 9.25781H18.3975V7.03125H16.1709V9.25781ZM18.4561 9.25781H20.6826V7.03125H18.4561V9.25781ZM20.7412 9.25781H22.9678V7.03125H20.7412V9.25781ZM23.0264 9.25781H25.2529V7.03125H23.0264V9.25781ZM25.3115 9.25781H27.5381V7.03125H25.3115V9.25781ZM4.74512 6.97266H6.97168V4.74609H4.74512V6.97266ZM7.03027 6.97266H9.25684V4.74609H7.03027V6.97266ZM9.31543 6.97266H11.542V4.74609H9.31543V6.97266ZM11.6006 6.97266H13.8271V4.74609H11.6006V6.97266ZM13.8857 6.97266H16.1123V4.74609H13.8857V6.97266ZM16.1709 6.97266H18.3975V4.74609H16.1709V6.97266ZM18.4561 6.97266H20.6826V4.74609H18.4561V6.97266ZM20.7412 6.97266H22.9678V4.74609H20.7412V6.97266ZM23.0264 6.97266H25.2529V4.74609H23.0264V6.97266ZM7.03027 4.6875H9.25684V2.46094H7.03027V4.6875ZM9.31543 4.6875H11.542V2.46094H9.31543V4.6875ZM11.6006 4.6875H13.8271V2.46094H11.6006V4.6875ZM13.8857 4.6875H16.1123V2.46094H13.8857V4.6875ZM16.1709 4.6875H18.3975V2.46094H16.1709V4.6875ZM18.4561 4.6875H20.6826V2.46094H18.4561V4.6875ZM20.7412 4.6875H22.9678V2.46094H20.7412V4.6875Z" fill="#E4FFFD"/>
</g>
<g filter="url(#filter2_n_1_16500)">
<mask id="path-4-inside-1_1_16500" fill="white">
<path d="M17.5995 17.638C18.3965 17.6128 18.9386 17.9786 19.5644 18.2982C20.4292 18.7393 21.3636 19.2216 22.5331 19.6253C23.2124 19.8594 24.3105 20.3979 25.3114 20.7982C26.3801 21.2258 27.3488 21.5276 27.9374 22.1487C28.0502 22.2785 28.1277 22.4245 28.1815 22.5775C28.0647 23.8272 27.7278 25.0653 26.9062 26.0423C25.7666 27.5206 23.866 28.1827 22.0439 28.1966C18.5947 28.2716 15.1423 28.2103 11.6903 28.2298C10.0133 28.2048 8.32794 28.3124 6.66202 28.0735C4.90114 27.8318 3.25129 26.7316 2.4628 25.1282C1.99274 24.2577 1.82177 23.2943 1.75772 22.3187C2.82658 22.0104 3.7435 21.7618 4.52725 21.4525C6.45259 20.6924 7.62654 19.8973 8.65128 19.2835C10.4114 18.229 11.5004 17.6334 12.5536 17.6907C13.754 17.7569 14.5353 18.5481 15.1024 18.5277C15.8012 18.5019 16.0323 17.6873 17.5995 17.638Z"/>
</mask>
<path d="M17.5995 17.638C18.3965 17.6128 18.9386 17.9786 19.5644 18.2982C20.4292 18.7393 21.3636 19.2216 22.5331 19.6253C23.2124 19.8594 24.3105 20.3979 25.3114 20.7982C26.3801 21.2258 27.3488 21.5276 27.9374 22.1487C28.0502 22.2785 28.1277 22.4245 28.1815 22.5775C28.0647 23.8272 27.7278 25.0653 26.9062 26.0423C25.7666 27.5206 23.866 28.1827 22.0439 28.1966C18.5947 28.2716 15.1423 28.2103 11.6903 28.2298C10.0133 28.2048 8.32794 28.3124 6.66202 28.0735C4.90114 27.8318 3.25129 26.7316 2.4628 25.1282C1.99274 24.2577 1.82177 23.2943 1.75772 22.3187C2.82658 22.0104 3.7435 21.7618 4.52725 21.4525C6.45259 20.6924 7.62654 19.8973 8.65128 19.2835C10.4114 18.229 11.5004 17.6334 12.5536 17.6907C13.754 17.7569 14.5353 18.5481 15.1024 18.5277C15.8012 18.5019 16.0323 17.6873 17.5995 17.638Z" fill="url(#paint1_linear_1_16500)"/>
<path d="M17.5995 17.638L17.6082 17.9156L17.6083 17.9156L17.5995 17.638ZM19.5644 18.2982L19.438 18.5456L19.4381 18.5456L19.5644 18.2982ZM22.5331 19.6253L22.4425 19.8879L22.4426 19.8879L22.5331 19.6253ZM25.3114 20.7982L25.4146 20.5403L25.4146 20.5402L25.3114 20.7982ZM27.9374 22.1487L28.1473 21.9664L28.139 21.9577L27.9374 22.1487ZM28.1815 22.5775L28.4581 22.6033L28.4638 22.5427L28.4436 22.4852L28.1815 22.5775ZM26.9062 26.0423L26.6934 25.8634L26.6862 25.8727L26.9062 26.0423ZM22.0439 28.1966L22.0417 27.9188L22.0378 27.9189L22.0439 28.1966ZM11.6903 28.2298L11.6862 28.5076L11.6919 28.5076L11.6903 28.2298ZM6.66202 28.0735L6.70145 27.7986L6.6998 27.7984L6.66202 28.0735ZM2.4628 25.1282L2.71225 25.0056L2.70722 24.9963L2.4628 25.1282ZM1.75772 22.3187L1.68074 22.0518L1.46589 22.1137L1.48054 22.3369L1.75772 22.3187ZM4.52725 21.4525L4.62925 21.7108L4.62925 21.7108L4.52725 21.4525ZM8.65128 19.2835L8.79401 19.5218L8.79403 19.5218L8.65128 19.2835ZM12.5536 17.6907L12.5689 17.4134L12.5687 17.4134L12.5536 17.6907ZM15.1024 18.5277L15.1124 18.8052L15.1127 18.8052L15.1024 18.5277ZM17.5995 17.638L17.6083 17.9156C18.3154 17.8933 18.7784 18.2087 19.438 18.5456L19.5644 18.2982L19.6907 18.0508C19.0989 17.7486 18.4776 17.3324 17.5908 17.3604L17.5995 17.638ZM19.5644 18.2982L19.4381 18.5456C20.3015 18.986 21.2521 19.4769 22.4425 19.8879L22.5331 19.6253L22.6238 19.3627C21.4751 18.9662 20.557 18.4927 19.6906 18.0507L19.5644 18.2982ZM22.5331 19.6253L22.4426 19.8879C22.7691 20.0004 23.2022 20.1884 23.6895 20.4035C24.1718 20.6165 24.7021 20.8537 25.2083 21.0561L25.3114 20.7982L25.4146 20.5402C24.9198 20.3424 24.4006 20.1102 23.9138 19.8953C23.432 19.6826 22.9764 19.4843 22.6236 19.3627L22.5331 19.6253ZM25.3114 20.7982L25.2082 21.0561C25.7563 21.2754 26.2472 21.4505 26.6884 21.6533C27.125 21.854 27.4772 22.0669 27.7358 22.3398L27.9374 22.1487L28.139 21.9577C27.809 21.6094 27.3825 21.3609 26.9204 21.1485C26.463 20.9382 25.9352 20.7486 25.4146 20.5403L25.3114 20.7982ZM27.9374 22.1487L27.7277 22.3309C27.8136 22.4298 27.8751 22.5436 27.9195 22.6697L28.1815 22.5775L28.4436 22.4852C28.3803 22.3054 28.2867 22.1273 28.1471 21.9666L27.9374 22.1487ZM28.1815 22.5775L27.905 22.5516C27.7908 23.7732 27.4641 24.9473 26.6936 25.8635L26.9062 26.0423L27.1188 26.2211C27.9915 25.1833 28.3387 23.8812 28.4581 22.6033L28.1815 22.5775ZM26.9062 26.0423L26.6862 25.8727C25.6143 27.2633 23.8076 27.9054 22.0417 27.9188L22.0439 28.1966L22.046 28.4744C23.9244 28.46 25.9189 27.778 27.1262 26.2119L26.9062 26.0423ZM22.0439 28.1966L22.0378 27.9189C18.5902 27.9939 15.1508 27.9325 11.6888 27.952L11.6903 28.2298L11.6919 28.5076C15.1339 28.4882 18.5991 28.5494 22.0499 28.4743L22.0439 28.1966ZM11.6903 28.2298L11.6945 27.9521C9.98793 27.9266 8.34413 28.0341 6.70145 27.7986L6.66202 28.0735L6.62259 28.3485C8.31175 28.5907 10.0386 28.483 11.6862 28.5075L11.6903 28.2298ZM6.66202 28.0735L6.6998 27.7984C5.02193 27.568 3.45618 26.5188 2.71207 25.0057L2.4628 25.1282L2.21353 25.2508C3.04641 26.9444 4.78034 28.0956 6.62424 28.3487L6.66202 28.0735ZM2.4628 25.1282L2.70722 24.9963C2.2644 24.1762 2.09779 23.2583 2.0349 22.3005L1.75772 22.3187L1.48054 22.3369C1.54576 23.3302 1.72107 24.3393 2.21838 25.2602L2.4628 25.1282ZM1.75772 22.3187L1.8347 22.5856C2.89513 22.2797 3.82968 22.0265 4.62925 21.7108L4.52725 21.4525L4.42526 21.1941C3.65731 21.4972 2.75802 21.7411 1.68074 22.0518L1.75772 22.3187ZM4.52725 21.4525L4.62925 21.7108C6.58099 20.9404 7.77822 20.1303 8.79401 19.5218L8.65128 19.2835L8.50854 19.0452C7.47486 19.6644 6.32418 20.4445 4.42526 21.1941L4.52725 21.4525ZM8.65128 19.2835L8.79403 19.5218C9.67602 18.9934 10.3738 18.59 10.9791 18.3246C11.5816 18.0604 12.0717 17.9427 12.5385 17.9681L12.5536 17.6907L12.5687 17.4134C11.9823 17.3814 11.4014 17.5328 10.756 17.8158C10.1135 18.0975 9.38669 18.5191 8.50852 19.0452L8.65128 19.2835ZM12.5536 17.6907L12.5383 17.9681C13.0809 17.998 13.5349 18.1915 13.9435 18.3912C14.1406 18.4876 14.3446 18.5945 14.5259 18.6708C14.7077 18.7474 14.9086 18.8126 15.1124 18.8052L15.1024 18.5277L15.0925 18.2501C15.0127 18.2529 14.9032 18.2269 14.7415 18.1588C14.5793 18.0905 14.4066 17.9993 14.1875 17.8921C13.7635 17.6848 13.2268 17.4496 12.5689 17.4134L12.5536 17.6907ZM15.1024 18.5277L15.1127 18.8052C15.3458 18.7966 15.5347 18.721 15.7026 18.6271C15.85 18.5447 16.0313 18.4154 16.1725 18.3272C16.4802 18.135 16.8827 17.9384 17.6082 17.9156L17.5995 17.638L17.5908 17.3604C16.7491 17.3868 16.2524 17.6222 15.8781 17.856C15.6783 17.9809 15.5729 18.0632 15.4314 18.1423C15.3104 18.2099 15.2085 18.2458 15.0922 18.2501L15.1024 18.5277Z" fill="#EEFFFE" fill-opacity="0.8" mask="url(#path-4-inside-1_1_16500)"/>
</g>
<mask id="path-6-inside-2_1_16500" fill="white">
<path d="M14.9746 4.98047C17.7762 4.98047 20.0478 7.24695 20.0479 10.043C20.0479 11.4405 19.4133 12.6436 18.5625 13.6221C17.6953 14.6193 16.1172 16.463 14.9746 17.6367C13.9606 16.6227 12.0415 14.4143 11.3877 13.6221C10.5624 12.622 9.90234 11.4405 9.90234 10.043C9.90235 7.24708 12.1732 4.98068 14.9746 4.98047ZM14.9746 8.29492C14.0039 8.29492 13.217 9.08206 13.2168 10.0527C13.2168 11.0235 14.0038 11.8105 14.9746 11.8105C15.9454 11.8105 16.7324 11.0235 16.7324 10.0527C16.7323 9.08209 15.9453 8.29498 14.9746 8.29492Z"/>
</mask>
<path d="M14.9746 4.98047C17.7762 4.98047 20.0478 7.24695 20.0479 10.043C20.0479 11.4405 19.4133 12.6436 18.5625 13.6221C17.6953 14.6193 16.1172 16.463 14.9746 17.6367C13.9606 16.6227 12.0415 14.4143 11.3877 13.6221C10.5624 12.622 9.90234 11.4405 9.90234 10.043C9.90235 7.24708 12.1732 4.98068 14.9746 4.98047ZM14.9746 8.29492C14.0039 8.29492 13.217 9.08206 13.2168 10.0527C13.2168 11.0235 14.0038 11.8105 14.9746 11.8105C15.9454 11.8105 16.7324 11.0235 16.7324 10.0527C16.7323 9.08209 15.9453 8.29498 14.9746 8.29492Z" fill="url(#paint2_linear_1_16500)"/>
<path d="M14.9746 4.98047V4.70269H14.9746L14.9746 4.98047ZM20.0479 10.043H20.3256V10.043L20.0479 10.043ZM18.5625 13.6221L18.3529 13.4398V13.4398L18.5625 13.6221ZM14.9746 17.6367L14.7782 17.8331L14.9773 18.0322L15.1737 17.8305L14.9746 17.6367ZM11.3877 13.6221L11.1735 13.7989L11.1735 13.7989L11.3877 13.6221ZM9.90234 10.043L9.62457 10.043V10.043H9.90234ZM14.9746 8.29492L14.9746 8.01715H14.9746V8.29492ZM13.2168 10.0527L12.939 10.0527V10.0527H13.2168ZM14.9746 11.8105V12.0883H14.9746L14.9746 11.8105ZM16.7324 10.0527H17.0102V10.0527L16.7324 10.0527ZM14.9746 4.98047V5.25825C17.6233 5.25825 19.7701 7.40093 19.7701 10.043L20.0479 10.043L20.3256 10.043C20.3256 7.09297 17.929 4.70269 14.9746 4.70269V4.98047ZM20.0479 10.043H19.7701C19.7701 11.3519 19.1764 12.4928 18.3529 13.4398L18.5625 13.6221L18.7721 13.8043C19.6503 12.7945 20.3256 11.5291 20.3256 10.043H20.0479ZM18.5625 13.6221L18.3529 13.4398C17.4821 14.4412 15.9111 16.2765 14.7756 17.443L14.9746 17.6367L15.1737 17.8305C16.3232 16.6495 17.9086 14.7973 18.7721 13.8043L18.5625 13.6221ZM14.9746 17.6367L15.171 17.4403C14.1663 16.4355 12.2537 14.235 11.6019 13.4453L11.3877 13.6221L11.1735 13.7989C11.8293 14.5936 13.7549 16.8098 14.7782 17.8331L14.9746 17.6367ZM11.3877 13.6221L11.6019 13.4453C10.7959 12.4686 10.1801 11.3485 10.1801 10.043H9.90234H9.62457C9.62457 11.5325 10.3288 12.7754 11.1735 13.7989L11.3877 13.6221ZM9.90234 10.043L10.1801 10.043C10.1801 7.40101 12.3261 5.25845 14.9746 5.25825L14.9746 4.98047L14.9746 4.70269C12.0203 4.70291 9.62457 7.09315 9.62457 10.043L9.90234 10.043ZM14.9746 8.29492V8.01715C13.8504 8.01715 12.9392 8.92868 12.939 10.0527L13.2168 10.0527L13.4946 10.0528C13.4947 9.23543 14.1574 8.5727 14.9746 8.5727V8.29492ZM13.2168 10.0527H12.939C12.939 11.177 13.8504 12.0883 14.9746 12.0883V11.8105V11.5328C14.1572 11.5328 13.4946 10.8701 13.4946 10.0527H13.2168ZM14.9746 11.8105L14.9746 12.0883C16.0988 12.0883 17.0102 11.1769 17.0102 10.0527H16.7324H16.4546C16.4546 10.8701 15.792 11.5327 14.9746 11.5328L14.9746 11.8105ZM16.7324 10.0527L17.0102 10.0527C17.01 8.9287 16.0987 8.01721 14.9746 8.01715L14.9746 8.29492L14.9746 8.5727C15.7918 8.57275 16.4545 9.23549 16.4546 10.0528L16.7324 10.0527Z" fill="#EEFFFE" fill-opacity="0.8" mask="url(#path-6-inside-2_1_16500)"/>
<path d="M12.03 3.63672H11.9585V3.29614H11.8384V3.23553H12.1498V3.29614H12.03V3.63672ZM12.4985 3.29364V3.4307H12.5794C12.625 3.4307 12.6514 3.4054 12.6514 3.36203C12.6514 3.31977 12.6233 3.29364 12.578 3.29364H12.4985ZM12.4985 3.48575V3.63672H12.4268V3.23553H12.5861C12.6728 3.23553 12.7248 3.28363 12.7248 3.36036C12.7248 3.41346 12.697 3.45767 12.6492 3.47491L12.7368 3.63672H12.655L12.5761 3.48575H12.4985ZM13.1872 3.22886C13.304 3.22886 13.3774 3.30865 13.3774 3.43626C13.3774 3.56388 13.304 3.64339 13.1872 3.64339C13.0702 3.64339 12.9968 3.56388 12.9968 3.43626C12.9968 3.30865 13.0702 3.22886 13.1872 3.22886ZM13.1872 3.29002C13.1155 3.29002 13.0702 3.34674 13.0702 3.43626C13.0702 3.52551 13.1155 3.58223 13.1872 3.58223C13.2587 3.58223 13.3043 3.52551 13.3043 3.43626C13.3043 3.34674 13.2587 3.29002 13.1872 3.29002ZM13.6624 3.23553H13.8184C13.8982 3.23553 13.9535 3.28974 13.9535 3.36981C13.9535 3.44989 13.8965 3.5041 13.8153 3.5041H13.7342V3.63672H13.6624V3.23553ZM13.7342 3.29419V3.44627H13.7992C13.8507 3.44627 13.8807 3.41847 13.8807 3.36981C13.8807 3.32172 13.8509 3.29419 13.7995 3.29419H13.7342ZM14.461 3.63672L14.4268 3.53302H14.2792L14.245 3.63672H14.171L14.3133 3.23553H14.3943L14.5366 3.63672H14.461ZM14.352 3.30643L14.2958 3.47769H14.4098L14.3539 3.30643H14.352ZM15.2184 3.63672H15.1492V3.23553H15.2115L15.4105 3.51661H15.413V3.23553H15.482V3.63672H15.4203L15.2209 3.35536H15.2184V3.63672ZM16.0428 3.63672L16.0086 3.53302H15.861L15.8268 3.63672H15.7528L15.8952 3.23553H15.9761L16.1185 3.63672H16.0428ZM15.9338 3.30643L15.8777 3.47769H15.9917L15.9358 3.30643H15.9338ZM16.461 3.29364V3.4307H16.5419C16.5875 3.4307 16.6139 3.4054 16.6139 3.36203C16.6139 3.31977 16.5859 3.29364 16.5405 3.29364H16.461ZM16.461 3.48575V3.63672H16.3893V3.23553H16.5486C16.6354 3.23553 16.6873 3.28363 16.6873 3.36036C16.6873 3.41346 16.6595 3.45767 16.6117 3.47491L16.6993 3.63672H16.6176L16.5386 3.48575H16.461ZM17.1425 3.63672H17.0711V3.29614H16.951V3.23553H17.2624V3.29614H17.1425V3.63672ZM17.6928 3.22886C17.8096 3.22886 17.883 3.30865 17.883 3.43626C17.883 3.56388 17.8096 3.64339 17.6928 3.64339C17.5757 3.64339 17.5023 3.56388 17.5023 3.43626C17.5023 3.30865 17.5757 3.22886 17.6928 3.22886ZM17.6928 3.29002C17.6211 3.29002 17.5757 3.34674 17.5757 3.43626C17.5757 3.52551 17.6211 3.58223 17.6928 3.58223C17.7642 3.58223 17.8098 3.52551 17.8098 3.43626C17.8098 3.34674 17.7642 3.29002 17.6928 3.29002ZM18.3482 3.63672H18.2659L18.1263 3.23553H18.2053L18.307 3.55971H18.3087L18.4104 3.23553H18.4877L18.3482 3.63672Z" fill="white" fill-opacity="0.9"/>
<defs>
<filter id="filter0_f_1_16500" x="0.527344" y="0.527344" width="28.9453" height="28.9453" filterUnits="userSpaceOnUse" color-interpolation-filters="sRGB">
<feFlood flood-opacity="0" result="BackgroundImageFix"/>
<feBlend mode="normal" in="SourceGraphic" in2="BackgroundImageFix" result="shape"/>
<feGaussianBlur stdDeviation="0" result="effect1_foregroundBlur_1_16500"/>
</filter>
<filter id="filter1_f_1_16500" x="0.527336" y="0.52734" width="28.9443" height="28.9424" filterUnits="userSpaceOnUse" color-interpolation-filters="sRGB">
<feFlood flood-opacity="0" result="BackgroundImageFix"/>
<feBlend mode="normal" in="SourceGraphic" in2="BackgroundImageFix" result="shape"/>
<feGaussianBlur stdDeviation="0" result="effect1_foregroundBlur_1_16500"/>
</filter>
<filter id="filter2_n_1_16500" x="1.75772" y="17.6368" width="26.4238" height="10.5983" filterUnits="userSpaceOnUse" color-interpolation-filters="sRGB">
<feFlood flood-opacity="0" result="BackgroundImageFix"/>
<feBlend mode="normal" in="SourceGraphic" in2="BackgroundImageFix" result="shape"/>
<feTurbulence type="fractalNoise" baseFrequency="7.0816049575805664 7.0816049575805664" stitchTiles="stitch" numOctaves="3" result="noise" seed="8742" />
<feColorMatrix in="noise" type="luminanceToAlpha" result="alphaNoise" />
<feComponentTransfer in="alphaNoise" result="coloredNoise1">
<feFuncA type="discrete" tableValues="0 0 0 0 0 0 0 0 0 0 0 0 0 0 0 0 0 0 0 1 1 1 1 1 1 1 1 1 1 1 1 1 0 0 0 0 0 0 0 0 0 0 0 0 0 0 0 0 0 0 0 0 0 0 0 0 0 0 0 0 0 0 0 0 0 0 0 0 0 0 0 0 0 0 0 0 0 0 0 0 0 0 0 0 0 0 0 0 0 0 0 0 0 0 0 0 0 0 0 0 "/>
</feComponentTransfer>
<feComposite operator="in" in2="shape" in="coloredNoise1" result="noise1Clipped" />
<feComponentTransfer in="alphaNoise" result="coloredNoise2">
<feFuncA type="discrete" tableValues="0 0 0 0 0 0 0 0 0 0 0 0 0 0 0 0 0 0 0 0 0 0 0 0 0 0 0 0 0 0 0 0 0 0 0 0 0 0 0 0 0 0 0 0 0 0 0 0 0 0 0 0 0 0 0 0 0 0 0 0 0 0 0 0 0 0 0 0 1 1 1 1 1 1 1 1 1 1 1 1 1 0 0 0 0 0 0 0 0 0 0 0 0 0 0 0 0 0 0 0 "/>
</feComponentTransfer>
<feComposite operator="in" in2="shape" in="coloredNoise2" result="noise2Clipped" />
<feFlood flood-color="#32B6AB" result="color1Flood" />
<feComposite operator="in" in2="noise1Clipped" in="color1Flood" result="color1" />
<feFlood flood-color="rgba(255, 255, 255, 0.25)" result="color2Flood" />
<feComposite operator="in" in2="noise2Clipped" in="color2Flood" result="color2" />
<feMerge result="effect1_noise_1_16500">
<feMergeNode in="shape" />
<feMergeNode in="color1" />
<feMergeNode in="color2" />
</feMerge>
</filter>
<linearGradient id="paint0_linear_1_16500" x1="15" y1="0" x2="15" y2="30" gradientUnits="userSpaceOnUse">
<stop stop-color="#53D8CD"/>
<stop offset="1" stop-color="#24A79C"/>
</linearGradient>
<linearGradient id="paint1_linear_1_16500" x1="14.9696" y1="17.637" x2="14.9696" y2="28.2347" gradientUnits="userSpaceOnUse">
<stop stop-color="white"/>
<stop offset="1" stop-color="#C5FFFA"/>
</linearGradient>
<linearGradient id="paint2_linear_1_16500" x1="14.9751" y1="4.98047" x2="14.9751" y2="17.6367" gradientUnits="userSpaceOnUse">
<stop stop-color="white"/>
<stop offset="1" stop-color="#C5FFFA"/>
</linearGradient>
</defs>
</svg>
