<svg width="21" height="26" viewBox="0 0 21 26" fill="none" xmlns="http://www.w3.org/2000/svg">
<path d="M19.5366 8.59985C19.3928 8.71338 16.8543 10.1691 16.8543 13.406C16.8543 17.1499 20.0844 18.4744 20.1811 18.5072C20.1662 18.588 19.6679 20.3212 18.4781 22.0872C17.4171 23.6413 16.309 25.1929 14.6233 25.1929C12.9376 25.1929 12.5038 24.1963 10.5578 24.1963C8.66143 24.1963 7.98716 25.2257 6.44525 25.2257C4.90335 25.2257 3.82749 23.7876 2.5905 22.0216C1.15767 19.9478 0 16.7261 0 13.6683C0 8.76384 3.13339 6.16274 6.21719 6.16274C7.85577 6.16274 9.22167 7.25768 10.2504 7.25768C11.2296 7.25768 12.7566 6.09715 14.6208 6.09715C15.3273 6.09715 17.8657 6.16274 19.5366 8.59985ZM13.7358 4.02081C14.5068 3.08987 15.0521 1.79815 15.0521 0.506429C15.0521 0.327304 15.0373 0.145656 15.005 -0.000671387C13.7507 0.0472635 12.2584 0.849542 11.3585 1.91168C10.652 2.72909 9.99262 4.02081 9.99262 5.33019C9.99262 5.52697 10.0248 5.72376 10.0397 5.78683C10.1191 5.80197 10.248 5.81963 10.3769 5.81963C11.5023 5.81963 12.9178 5.05267 13.7358 4.02081Z" fill="black"/>
</svg>
