<svg width="21" height="23" viewBox="0 0 21 23" fill="none" xmlns="http://www.w3.org/2000/svg">
<path d="M9.48685 10.7805L0.0842896 20.7002C0.189868 21.077 0.379607 21.4246 0.639003 21.7162C0.898398 22.0079 1.22058 22.2359 1.58093 22.383C1.94127 22.53 2.33023 22.5922 2.71808 22.5646C3.10593 22.5371 3.48239 22.4207 3.81869 22.2242L14.3983 16.1566L9.48685 10.7805Z" fill="#EA4335"/>
<path d="M18.9946 9.09454L14.4194 6.45587L9.26971 11.0065L14.4404 16.1428L18.9806 13.5323C19.3828 13.3202 19.7197 13.0014 19.9548 12.6102C20.1898 12.2191 20.3141 11.7706 20.3141 11.3134C20.3141 10.8562 20.1898 10.4078 19.9548 10.0166C19.7197 9.62549 19.3828 9.30661 18.9806 9.09454H18.9946Z" fill="#FBBC04"/>
<path d="M0.0841652 1.87677C0.0273287 2.08835 -0.000950998 2.30667 8.86905e-05 2.52585V20.0511C0.000657174 20.2702 0.0289096 20.4883 0.0841652 20.7002L9.80901 11.0345L0.0841652 1.87677Z" fill="#4285F4"/>
<path d="M9.55691 11.2884L14.4193 6.45558L3.85372 0.359824C3.45624 0.125406 3.00416 0.0012515 2.54353 5.04602e-06C1.98721 -0.00110511 1.44579 0.180992 1.00179 0.518539C0.557802 0.856086 0.235595 1.33057 0.0842896 1.86965L9.55691 11.2884Z" fill="#34A853"/>
</svg>
