<svg width="50" height="57" viewBox="0 0 50 57" fill="none" xmlns="http://www.w3.org/2000/svg">
<circle cx="25" cy="25" r="23.5" fill="#F6F6F6" stroke="#24A79C" stroke-width="3"/>
<path d="M21.7083 34.335C21.7083 33.8517 21.3166 33.46 20.8333 33.46C20.3501 33.46 19.9583 33.8517 19.9583 34.335V35.91C19.9583 36.13 19.9583 36.24 19.89 36.3083C19.8217 36.3766 19.7117 36.3766 19.4917 36.3766H18.4381C17.3913 36.3767 16.5156 36.3767 15.8198 36.2801C15.0822 36.1778 14.4189 35.9522 13.8887 35.405C13.3623 34.8616 13.1489 34.1883 13.0515 33.4403C13.017 33.1755 12.9954 32.885 12.9817 32.5687C12.9757 32.4293 12.9727 32.3596 13.0064 32.3009C13.0401 32.2423 13.1029 32.2092 13.2285 32.143L14.2174 31.6217C17.3386 30.2192 21.2446 29.3766 25.5001 29.3766C26.9338 29.3766 28.3278 29.4723 29.6656 29.6528C29.7944 29.6702 29.8589 29.6789 29.9085 29.7175C29.9582 29.7561 29.9828 29.817 30.0319 29.9388L32.3717 35.7353C32.4889 36.0258 32.5475 36.171 32.4781 36.2738C32.4088 36.3766 32.2521 36.3766 31.9389 36.3766L26.8417 36.3766C26.6217 36.3766 26.5117 36.3766 26.4433 36.3083C26.375 36.24 26.375 36.13 26.375 35.91V34.335C26.375 33.8517 25.9833 33.46 25.5 33.46C25.0168 33.46 24.625 33.8517 24.625 34.335V35.91C24.625 36.13 24.625 36.24 24.5567 36.3083C24.4883 36.3766 24.3783 36.3766 24.1583 36.3766H22.175C21.955 36.3766 21.845 36.3766 21.7767 36.3083C21.7083 36.24 21.7083 36.13 21.7083 35.91V34.335Z" fill="#24A79C"/>
<path d="M25.7861 20.483C25.1974 20.1182 24.5551 20.184 23.9908 20.2419C23.7149 20.2689 23.3116 20.3157 23.0388 20.3561C19.711 20.8493 16.5771 22.3828 13.9641 24.5805C13.6686 24.8275 13.3429 25.0997 13.1495 25.5151C12.9559 25.931 12.9573 26.3764 12.9585 26.7851L12.9587 29.7524C12.9587 29.8996 12.9587 29.9731 12.9815 30.0209C13.0217 30.1049 13.1081 30.157 13.2012 30.1534C13.254 30.1513 13.3191 30.117 13.4493 30.0484L13.4738 30.0373C14.6513 29.5064 15.9251 29.0525 17.2752 28.6864C17.4444 28.6405 17.529 28.6176 17.577 28.5548C17.625 28.4921 17.625 28.4055 17.625 28.2322V26.7516C17.625 26.2684 18.0168 25.8766 18.5 25.8766C18.9833 25.8766 19.375 26.2684 19.375 26.7516V27.6354C19.375 27.8963 19.375 28.0267 19.4581 28.0967C19.5413 28.1666 19.6712 28.144 19.9311 28.0988C20.5656 27.9885 21.2126 27.8967 21.8703 27.8242C22.0718 27.802 22.1726 27.7909 22.2321 27.7244C22.2917 27.658 22.2917 27.5576 22.2917 27.3569V26.1683C22.2917 25.685 22.6834 25.2933 23.1667 25.2933C23.6499 25.2933 24.0417 25.685 24.0417 26.1683V27.1708C24.0417 27.399 24.0417 27.5131 24.1124 27.5818C24.1831 27.6505 24.2983 27.6472 24.5287 27.6406C24.8507 27.6313 25.1745 27.6266 25.5001 27.6266C26.4848 27.6266 27.4538 27.6694 28.4023 27.7523C28.7526 27.7829 28.9277 27.7983 29.0054 27.6932C29.0831 27.5882 29.0181 27.427 28.8879 27.1045L26.8944 22.1657C26.7598 21.8321 26.6315 21.5141 26.4905 21.2582C26.3309 20.9686 26.1201 20.69 25.7861 20.483Z" fill="#24A79C"/>
<path d="M22.9629 18.3175L22.6906 17.6268C22.3098 16.6609 21.985 15.837 21.6152 15.2205C21.2119 14.5484 20.702 14.0289 19.9188 13.7737C19.1686 13.5292 18.5009 13.6015 17.8273 13.8793C17.2347 14.1237 16.6008 14.5457 15.8921 15.0174C15.5839 15.2225 15.1285 15.5457 14.8305 15.7693C14.177 16.2587 13.6512 16.6524 13.3031 17.3576C12.9568 18.0594 12.9575 18.8013 12.9584 19.7452L12.9585 22.5172C12.9585 22.9476 12.9585 23.1627 13.0878 23.2272C13.2171 23.2916 13.3921 23.1595 13.7423 22.8952C16.2806 20.9798 19.4799 19.531 22.599 18.9602C22.869 18.9108 23.0041 18.886 23.0576 18.7897C23.1111 18.6933 23.0617 18.5681 22.9629 18.3175Z" fill="#24A79C"/>
<path d="M31.1043 28.1035C30.9773 28.0812 30.9138 28.0701 30.8668 28.0321C30.8198 27.9941 30.7959 27.935 30.7482 27.8167L29.516 24.764C29.3997 24.4758 29.3415 24.3318 29.4095 24.2294C29.4102 24.2284 29.4108 24.2274 29.4115 24.2265C29.481 24.1251 29.6364 24.1251 29.9471 24.1251C30.1654 24.1251 30.2745 24.1251 30.3427 24.0577C30.3433 24.0571 30.344 24.0564 30.3446 24.0558C30.412 23.9876 30.412 23.8785 30.412 23.6602V22.6668C30.412 22.3803 30.5522 22.1119 30.7874 21.9484C31.0226 21.7848 31.323 21.7468 31.5915 21.8465C33.167 22.4313 34.6571 23.2327 36.0371 24.2184L36.1309 24.2853C36.791 24.7559 37.3279 25.1386 37.685 25.8302C38.0431 26.5238 38.0423 27.2598 38.0413 28.1745L38.0412 29.705C38.0412 29.8844 38.0412 29.974 38.0058 30.0307C37.969 30.0898 37.9077 30.1293 37.8387 30.1385C37.7724 30.1473 37.6908 30.1103 37.5274 30.0363L37.5261 30.0357C35.6115 29.1725 33.4425 28.5127 31.1043 28.1035Z" fill="#24A79C"/>
<path d="M31.9484 30.7902C31.8044 30.4333 31.7324 30.2549 31.8251 30.1472C31.9178 30.0395 32.1026 30.0835 32.4722 30.1717C34.0353 30.5444 35.4911 31.038 36.8068 31.6311L37.7526 32.0594C37.8892 32.1213 37.9575 32.1522 37.9949 32.2125C38.0323 32.2728 38.0297 32.3466 38.0245 32.4942C38.0116 32.8675 37.9884 33.2067 37.9471 33.5112C37.8477 34.2449 37.6289 34.9067 37.0937 35.4378C36.5593 35.968 35.8951 36.1838 35.1589 36.282C34.9613 36.3083 34.7492 36.3272 34.5227 36.3408C34.367 36.3501 34.2892 36.3547 34.2257 36.3146C34.1621 36.2744 34.1323 36.2004 34.0726 36.0525L31.9484 30.7902Z" fill="#24A79C"/>
<path d="M24.1893 55.8775L19.6451 49.5855C19.1675 48.9242 19.64 48 20.4558 48H29.5442C30.36 48 30.8325 48.9242 30.3549 49.5855L25.8107 55.8775C25.4115 56.4302 24.5885 56.4302 24.1893 55.8775Z" fill="#24A79C"/>
</svg>
