<svg width="50" height="57" viewBox="0 0 50 57" fill="none" xmlns="http://www.w3.org/2000/svg">
<circle cx="25" cy="25" r="23.5" fill="#F6F6F6" stroke="#24A79C" stroke-width="3"/>
<path fill-rule="evenodd" clip-rule="evenodd" d="M17.3023 19.479C17.9206 19.3605 18.5187 19.7611 18.6383 20.3739C18.758 20.9868 18.3538 21.5797 17.7356 21.6983C16.983 21.8426 16.5282 22.0608 16.1918 22.3573C15.7931 22.7086 15.5367 23.1895 15.3928 24.1325C15.2417 25.1229 15.2386 26.443 15.2386 28.3734C15.2386 30.3038 15.2417 31.6239 15.3928 32.6143C15.5367 33.5573 15.7931 34.0383 16.1918 34.3896C16.6097 34.7579 17.2127 35.0072 18.3508 35.142C19.5092 35.2793 21.0411 35.2812 23.2197 35.2812H27.7803C29.9589 35.2812 31.4908 35.2793 32.6492 35.142C33.7873 35.0072 34.3903 34.7579 34.8082 34.3896C35.2069 34.0383 35.4634 33.5573 35.6072 32.6143C35.7583 31.6239 35.7614 30.3038 35.7614 28.3734C35.7614 26.443 35.7583 25.1229 35.6072 24.1325C35.4634 23.1895 35.2069 22.7086 34.8082 22.3573C34.4719 22.0608 34.017 21.8426 33.2645 21.6983C32.6462 21.5797 32.2421 20.9868 32.3617 20.3739C32.4813 19.7611 33.0795 19.3605 33.6977 19.479C34.7112 19.6735 35.5888 20.0207 36.3233 20.6679C37.2604 21.4937 37.6718 22.5486 37.8619 23.7945C38.0418 24.9735 38.0417 26.4655 38.0417 28.2834V28.4633C38.0417 30.2813 38.0418 31.7733 37.8619 32.9523C37.6718 34.1982 37.2604 35.2531 36.3233 36.0789C35.4054 36.8878 34.2656 37.227 32.9198 37.3865C31.6102 37.5416 29.9416 37.5416 27.8557 37.5416H23.1444C21.0584 37.5416 19.3899 37.5416 18.0802 37.3865C16.7344 37.227 15.5946 36.8878 14.6767 36.0789C13.7396 35.2531 13.3282 34.1982 13.1381 32.9523C12.9583 31.7733 12.9583 30.2813 12.9583 28.4634V28.2834C12.9583 26.4655 12.9583 24.9735 13.1381 23.7945C13.3282 22.5486 13.7396 21.4937 14.6767 20.6679C15.4112 20.0207 16.2888 19.6735 17.3023 19.479Z" fill="#24A79C"/>
<path fill-rule="evenodd" clip-rule="evenodd" d="M17.3333 28.4999C17.3333 27.8556 17.8557 27.3333 18.5 27.3333L19.6667 27.3333C20.311 27.3333 20.8333 27.8556 20.8333 28.4999C20.8333 29.1443 20.311 29.6666 19.6667 29.6666H18.5C17.8557 29.6666 17.3333 29.1443 17.3333 28.4999ZM23.75 28.4999C23.75 27.8556 24.2723 27.3333 24.9167 27.3333L26.0833 27.3333C26.7277 27.3333 27.25 27.8556 27.25 28.4999C27.25 29.1443 26.7277 29.6666 26.0833 29.6666H24.9167C24.2723 29.6666 23.75 29.1443 23.75 28.4999ZM30.1667 28.4999C30.1667 27.8556 30.689 27.3333 31.3333 27.3333L32.5 27.3333C33.1443 27.3333 33.6667 27.8556 33.6667 28.4999C33.6667 29.1443 33.1443 29.6666 32.5 29.6666H31.3333C30.689 29.6666 30.1667 29.1443 30.1667 28.4999Z" fill="#24A79C"/>
<path d="M25.4883 12.458C28.5571 12.458 31.0302 14.9687 31.0303 18.0469C31.0303 19.8189 30.3132 21.2051 28.9854 22.3818C28.2437 23.0391 27.3266 24.1987 26.7207 25.126C26.4889 25.4805 26.0771 25.875 25.4805 25.875C24.874 25.8748 24.4646 25.4689 24.2412 25.1025C23.6846 24.1896 22.7431 23.0481 21.9912 22.3818C20.6635 21.2052 19.9473 19.8188 19.9473 18.0469C19.9474 14.9688 22.4197 12.4582 25.4883 12.458ZM25.4795 15.958C24.357 15.958 23.4473 16.8724 23.4473 18C23.4473 19.1276 24.357 20.042 25.4795 20.042H25.498C26.6204 20.0418 27.5303 19.1275 27.5303 18C27.5303 16.8725 26.6204 15.9582 25.498 15.958H25.4795Z" fill="#24A79C"/>
<path d="M24.1893 55.8775L19.6451 49.5855C19.1675 48.9242 19.64 48 20.4558 48H29.5442C30.36 48 30.8325 48.9242 30.3549 49.5855L25.8107 55.8775C25.4115 56.4302 24.5885 56.4302 24.1893 55.8775Z" fill="#24A79C"/>
</svg>
