<svg width="50" height="57" viewBox="0 0 50 57" fill="none" xmlns="http://www.w3.org/2000/svg">
<circle cx="25" cy="25" r="23.5" fill="#F6F6F6" stroke="#24A79C" stroke-width="3"/>
<path d="M36.875 36.375C37.5193 36.375 38.042 35.8523 38.042 35.208V29.6055C38.042 28.5577 38.0415 27.684 37.9482 26.9902C37.8498 26.2578 37.6329 25.5958 37.1016 25.0645C36.5702 24.5333 35.909 24.3162 35.1768 24.2178C34.4829 24.1245 33.6087 24.125 32.5605 24.125H18.4395C17.3913 24.125 16.5171 24.1245 15.8232 24.2178C15.091 24.3162 14.4298 24.5333 13.8984 25.0645C13.3671 25.5958 13.1502 26.2578 13.0518 26.9902C12.9585 27.6841 12.958 28.5585 12.958 29.6064V35.208C12.958 35.8523 13.4807 36.375 14.125 36.375C14.7693 36.375 15.292 35.8523 15.292 35.208V32.292H35.708V35.208C35.708 35.8523 36.2307 36.375 36.875 36.375Z" fill="#24A79C"/>
<path d="M25.5 15.8523C22.815 15.8523 20.3302 16.6696 18.2889 18.0619C17.9942 18.2629 17.8477 18.3647 17.7441 18.4538C17.6687 18.5187 17.6466 18.5515 17.6252 18.5918C17.6138 18.6132 17.5935 18.6526 17.5792 18.7934C17.5619 18.9637 17.5606 19.1886 17.5606 19.5947V24.7614C17.5606 25.3764 17.0528 25.875 16.4264 25.875C15.8 25.875 15.2922 25.3764 15.2922 24.7614V19.5947L15.2919 19.4556C15.2901 18.8257 15.2883 18.1731 15.615 17.5596C15.9408 16.9479 16.4348 16.6127 16.9045 16.294L16.9948 16.2326C19.4047 14.5889 22.3389 13.625 25.5 13.625C28.6611 13.625 31.5953 14.5889 34.0052 16.2326L34.0955 16.294C34.5651 16.6127 35.0591 16.9479 35.3849 17.5596C35.7117 18.1731 35.7099 18.8257 35.7081 19.4556L35.7078 19.5947V24.7614C35.7078 25.3764 35.2 25.875 34.5736 25.875C33.9472 25.875 33.4394 25.3764 33.4394 24.7614V19.5947C33.4394 19.1886 33.4381 18.9637 33.4208 18.7934C33.4065 18.6526 33.3862 18.6132 33.3748 18.5917C33.3534 18.5515 33.3313 18.5187 33.2558 18.4538C33.1523 18.3647 33.0058 18.2629 32.7111 18.0619C30.6698 16.6696 28.185 15.8523 25.5 15.8523Z" fill="#24A79C"/>
<path d="M21.1438 21.5591C22.363 21.0389 23.8637 20.625 25.5 20.625C27.1363 20.625 28.637 21.0389 29.8562 21.5591C30.1654 21.691 30.5436 21.8867 30.7877 22.2787C31.0238 22.6578 31.0417 23.0773 31.0417 23.3874V25.875H19.9583V23.3874C19.9583 23.0773 19.9763 22.6578 20.2123 22.2787C20.4564 21.8867 20.8346 21.691 21.1438 21.5591Z" fill="#24A79C"/>
<path d="M24.1893 55.8775L19.6451 49.5855C19.1675 48.9242 19.64 48 20.4558 48H29.5442C30.36 48 30.8325 48.9242 30.3549 49.5855L25.8107 55.8775C25.4115 56.4302 24.5885 56.4302 24.1893 55.8775Z" fill="#24A79C"/>
</svg>
