<svg width="50" height="57" viewBox="0 0 50 57" fill="none" xmlns="http://www.w3.org/2000/svg">
<circle cx="25" cy="25" r="23.5" fill="#F6F6F6" stroke="#24A79C" stroke-width="3"/>
<path d="M36 13.625C36.4832 13.625 36.875 14.0168 36.875 14.5V17.7C36.875 17.8657 36.7407 18 36.575 18H36C32.1341 18 29.0001 21.1341 29 25C29 28.866 32.134 32 36 32H36.575C36.7407 32 36.875 32.1343 36.875 32.3V35.5C36.875 35.9832 36.4832 36.375 36 36.375C29.7178 36.375 24.625 31.2822 24.625 25C24.625 18.7178 29.7178 13.625 36 13.625ZM36.875 29.367C36.875 29.5327 36.7407 29.667 36.575 29.667H36C33.4227 29.667 31.333 27.5773 31.333 25C31.3331 22.4227 33.4227 20.333 36 20.333H36.575C36.7407 20.333 36.875 20.4673 36.875 20.633V29.367Z" fill="#24A79C"/>
<path d="M15.2917 13.3333C15.936 13.3333 16.4583 13.8556 16.4583 14.4999V18.5833C16.4583 18.9054 16.7195 19.1666 17.0417 19.1666C17.3638 19.1666 17.625 18.9054 17.625 18.5833L17.625 14.4999C17.625 13.8556 18.1473 13.3333 18.7917 13.3333C19.436 13.3333 19.9583 13.8556 19.9583 14.4999V18.5833C19.9583 18.9054 20.2195 19.1666 20.5417 19.1666C20.8638 19.1666 21.125 18.9054 21.125 18.5833L21.125 14.4999C21.125 13.8556 21.6473 13.3333 22.2917 13.3333C22.936 13.3333 23.4583 13.8556 23.4583 14.4999L23.4583 19.5775C23.4583 21.2416 22.9405 22.6038 22.0543 23.5617C21.5189 24.1403 20.8709 24.5465 20.1772 24.7763C20.049 24.8188 19.9583 24.9362 19.9583 25.0713L19.9583 35.4999C19.9583 36.1442 19.436 36.6666 18.7917 36.6666C18.1473 36.6666 17.625 36.1442 17.625 35.4999L17.625 25.0712C17.625 24.9361 17.5344 24.8187 17.4061 24.7763C16.7125 24.5464 16.0644 24.1401 15.529 23.5615C14.6428 22.6036 14.125 21.2414 14.125 19.5773V14.4999C14.125 13.8556 14.6473 13.3333 15.2917 13.3333Z" fill="#24A79C"/>
<path d="M24.1893 55.8775L19.6451 49.5855C19.1675 48.9242 19.64 48 20.4558 48H29.5442C30.36 48 30.8325 48.9242 30.3549 49.5855L25.8107 55.8775C25.4115 56.4302 24.5885 56.4302 24.1893 55.8775Z" fill="#24A79C"/>
</svg>
